# Blender v2.79 (sub 0) OBJ File: ''
# www.blender.org
mtllib Bobobj.mtl
o Cube
v -3.834827 3.834827 3.834827
v -3.834827 3.834827 -3.834827
v 3.834828 3.834827 -3.834827
v 3.834826 3.834827 3.834829
v -3.834829 -3.834827 3.834825
v -3.834825 -3.834827 -3.834830
v 3.834829 -3.834827 -3.834826
v 3.834827 -3.834827 3.834827
vn 0.0000 1.0000 0.0000
vn 0.0000 -1.0000 -0.0000
vn -1.0000 0.0000 0.0000
vn 0.0000 0.0000 -1.0000
vn 1.0000 0.0000 0.0000
vn -0.0000 -0.0000 1.0000
g Cube_Cube_Material
usemtl Material
s off
f 2//1 1//1 4//1
f 8//2 5//2 6//2
f 5//3 1//3 2//3
f 6//4 2//4 3//4
f 3//5 4//5 8//5
f 1//6 5//6 8//6
f 2//1 4//1 3//1
f 8//2 6//2 7//2
f 5//3 2//3 6//3
f 6//4 3//4 7//4
f 3//5 8//5 7//5
f 1//6 8//6 4//6
