# Blender v3.1.2 OBJ File: ''
# www.blender.org
mtllib CDRIDERj.mtl
o Cube_Cube.001
v -40.331249 -2.488272 42.965015
v -37.333355 59.333130 39.967121
v -40.331249 -2.488272 -18.856388
v -37.333355 59.333130 -15.858495
v 21.490154 -2.488272 42.965015
v 18.492260 59.333130 39.967121
v 21.490154 -2.488272 -18.856388
v 18.492260 59.333130 -15.858495
v -40.331249 59.333130 42.965015
v -40.331249 59.333130 -18.856388
v 21.490154 59.333130 -18.856388
v 21.490154 59.333130 42.965015
v -37.333355 12.273142 39.967121
v -37.333355 12.273142 -15.858495
v 18.492260 12.273142 -15.858495
v 18.492260 12.273142 39.967121
v 164.203476 59.333130 -18.856388
v 164.203476 -2.488272 -18.856388
v 164.203476 -2.488272 42.965015
v 164.203476 59.333130 42.965015
v 221.369385 59.333130 -18.856388
v 221.369385 -2.488272 -18.856388
v 221.369385 -2.488272 42.965015
v 221.369385 59.333130 42.965015
v 164.203476 223.682465 -18.856388
v 164.203476 223.682465 42.965015
v 221.369385 223.682465 -18.856388
v 221.369385 223.682465 42.965015
v 164.203476 265.076050 -18.856388
v 164.203476 265.076050 42.965015
v 221.369385 265.076050 -18.856388
v 221.369385 265.076050 42.965015
v -46.568169 223.682465 -18.856388
v -46.568169 223.682465 42.965015
v -46.568169 265.076050 -18.856388
v -46.568169 265.076050 42.965015
vt 0.625000 0.000000
vt 0.375000 0.250000
vt 0.375000 0.000000
vt 0.625000 0.250000
vt 0.375000 0.500000
vt 0.625000 0.750000
vt 0.625000 0.500000
vt 0.625000 0.500000
vt 0.375000 1.000000
vt 0.375000 0.750000
vt 0.125000 0.750000
vt 0.125000 0.500000
vt 0.637123 0.737877
vt 0.862877 0.737877
vt 0.862877 0.737877
vt 0.862877 0.512123
vt 0.875000 0.750000
vt 0.637123 0.512123
vt 0.875000 0.500000
vt 0.862877 0.512123
vt 0.637123 0.737877
vt 0.637123 0.512123
vt 0.625000 0.750000
vt 0.625000 0.500000
vt 0.375000 0.500000
vt 0.375000 0.750000
vt 0.625000 0.500000
vt 0.375000 0.750000
vt 0.375000 0.500000
vt 0.625000 0.750000
vt 0.625000 0.750000
vt 0.625000 0.750000
vt 0.625000 0.750000
vt 0.625000 0.500000
vt 0.625000 0.500000
vt 0.625000 0.500000
vt 0.625000 0.750000
vt 0.625000 0.750000
vt 0.625000 0.750000
vt 0.625000 0.500000
vt 0.625000 0.500000
vt 0.625000 1.000000
vn -1.0000 0.0000 0.0000
vn 0.0000 0.0000 -1.0000
vn 0.0000 1.0000 0.0000
vn 0.0000 0.0000 1.0000
vn 0.0000 -1.0000 0.0000
vn 1.0000 0.0000 0.0000
usemtl None
s off
f 9/1/1 3/2/1 1/3/1
f 10/4/2 7/5/2 3/2/2
f 12/6/3 17/7/3 11/8/3
f 12/6/4 1/9/4 5/10/4
f 7/5/5 1/11/5 3/12/5
f 6/13/2 13/14/2 2/15/2
f 4/16/3 9/17/3 2/15/3
f 8/18/3 10/19/3 4/16/3
f 6/13/3 11/8/3 8/18/3
f 2/15/3 12/6/3 6/13/3
f 14/20/3 16/21/3 15/22/3
f 4/16/4 15/22/4 8/18/4
f 8/18/1 16/21/1 6/13/1
f 2/15/6 14/20/6 4/16/6
f 20/23/1 25/24/1 17/7/1
f 11/8/2 18/25/2 7/5/2
f 5/10/4 20/23/4 12/6/4
f 7/5/5 19/26/5 5/10/5
f 21/27/6 23/28/6 22/29/6
f 17/7/2 22/29/2 18/25/2
f 19/26/4 24/30/4 20/23/4
f 18/25/5 23/28/5 19/26/5
f 28/31/4 30/32/4 26/33/4
f 17/7/2 27/34/2 21/27/2
f 24/30/4 26/33/4 20/23/4
f 21/27/6 28/31/6 24/30/6
f 30/32/3 31/35/3 29/36/3
f 29/36/3 36/37/3 30/32/3
f 25/24/2 31/35/2 27/34/2
f 27/34/6 32/38/6 28/31/6
f 34/39/1 35/40/1 33/41/1
f 30/32/4 34/39/4 26/33/4
f 26/33/5 33/41/5 25/24/5
f 25/24/2 35/40/2 29/36/2
f 9/1/1 10/4/1 3/2/1
f 10/4/2 11/8/2 7/5/2
f 12/6/3 20/23/3 17/7/3
f 12/6/4 9/42/4 1/9/4
f 7/5/5 5/10/5 1/11/5
f 6/13/2 16/21/2 13/14/2
f 4/16/3 10/19/3 9/17/3
f 8/18/3 11/8/3 10/19/3
f 6/13/3 12/6/3 11/8/3
f 2/15/3 9/17/3 12/6/3
f 14/20/3 13/14/3 16/21/3
f 4/16/4 14/20/4 15/22/4
f 8/18/1 15/22/1 16/21/1
f 2/15/6 13/14/6 14/20/6
f 20/23/1 26/33/1 25/24/1
f 11/8/2 17/7/2 18/25/2
f 5/10/4 19/26/4 20/23/4
f 7/5/5 18/25/5 19/26/5
f 21/27/6 24/30/6 23/28/6
f 17/7/2 21/27/2 22/29/2
f 19/26/4 23/28/4 24/30/4
f 18/25/5 22/29/5 23/28/5
f 28/31/4 32/38/4 30/32/4
f 17/7/2 25/24/2 27/34/2
f 24/30/4 28/31/4 26/33/4
f 21/27/6 27/34/6 28/31/6
f 30/32/3 32/38/3 31/35/3
f 29/36/3 35/40/3 36/37/3
f 25/24/2 29/36/2 31/35/2
f 27/34/6 31/35/6 32/38/6
f 34/39/1 36/37/1 35/40/1
f 30/32/4 36/37/4 34/39/4
f 26/33/5 34/39/5 33/41/5
f 25/24/2 33/41/2 35/40/2
