# Blender v2.93.18 OBJ File: ''
# www.blender.org
mtllib Les2.mtl
o Cube_Cube.001
v 497.329437 497.329437 -497.329437
v 497.329437 -497.329437 -497.329437
v 497.329437 497.329437 497.329437
v 497.329437 -497.329437 497.329437
v -497.329437 497.329437 -497.329437
v -497.329437 -497.329437 -497.329437
v -497.329437 497.329437 497.329437
v -494.027893 -497.377686 495.225433
vt 0.625000 0.000000
vt 0.375000 0.000000
vt 0.375000 0.250000
vt 0.375000 0.500000
vt 0.625000 0.500000
vt 0.375000 0.750000
vt 0.625000 0.750000
vt 0.375000 1.000000
vt 0.125000 0.500000
vt 0.125000 0.750000
vt 0.875000 0.750000
vt 0.625000 0.250000
vt 0.625000 1.000000
vt 0.875000 0.500000
vn 1.0000 0.0000 0.0000
vn 0.0000 -0.0021 1.0000
vn -1.0000 -0.0033 0.0000
vn 0.0000 0.0000 -1.0000
vn 0.0000 1.0000 0.0000
vn 0.0000 -1.0000 -0.0000
vn -0.0021 0.0000 1.0000
vn -1.0000 0.0000 0.0033
usemtl None
s off
f 2/1/1 1/2/1 3/3/1
f 3/3/2 7/4/2 8/5/2
f 8/5/3 7/4/3 5/6/3
f 6/7/4 5/6/4 1/8/4
f 7/4/5 3/9/5 1/10/5
f 8/5/6 6/7/6 2/11/6
f 2/1/1 3/3/1 4/12/1
f 3/3/7 8/5/7 4/12/7
f 8/5/8 5/6/8 6/7/8
f 6/7/4 1/8/4 2/13/4
f 7/4/5 1/10/5 5/6/5
f 8/5/6 2/11/6 4/14/6
