# Blender v2.93.18 OBJ File: ''
# www.blender.org
mtllib untitled432.mtl
o Cube_Cube.001
v -1.000000 -1.000000 1.000000
v -1.000000 1.000000 1.000000
v -1.000000 -1.000000 -1.000000
v -1.000000 1.000000 -1.000000
v 1.000000 -1.000000 1.000000
v 1.000000 1.000000 1.000000
v 1.000000 -1.000000 -1.000000
v 0.993361 1.000097 -0.995769
vt 0.625000 0.000000
vt 0.375000 0.250000
vt 0.375000 0.000000
vt 0.625000 0.500000
vt 0.375000 0.500000
vt 0.375000 0.750000
vt 0.625000 0.750000
vt 0.375000 1.000000
vt 0.125000 0.750000
vt 0.125000 0.500000
vt 0.875000 0.750000
vt 0.625000 0.250000
vt 0.625000 1.000000
vt 0.875000 0.500000
vn -1.0000 0.0000 0.0000
vn 0.0000 0.0021 -1.0000
vn 1.0000 0.0033 0.0000
vn 0.0000 0.0000 1.0000
vn 0.0000 -1.0000 0.0000
vn 0.0000 1.0000 0.0000
vn 0.0021 0.0000 -1.0000
vn 1.0000 0.0000 -0.0033
usemtl None
s off
f 2/1/1 3/2/1 1/3/1
f 3/2/2 8/4/2 7/5/2
f 8/4/3 5/6/3 7/5/3
f 6/7/4 1/8/4 5/6/4
f 7/5/5 1/9/5 3/10/5
f 8/4/6 2/11/6 6/7/6
f 2/1/1 4/12/1 3/2/1
f 3/2/7 4/12/7 8/4/7
f 8/4/8 6/7/8 5/6/8
f 6/7/4 2/13/4 1/8/4
f 7/5/5 5/6/5 1/9/5
f 8/4/6 4/14/6 2/11/6
